<?xml version="1.0" ?>
<!DOCTYPE svg  PUBLIC '-//W3C//DTD SVG 1.1//EN'  'http://www.w3.org/Graphics/SVG/1.1/DTD/svg11.dtd'>
<svg enable-background="new 0 0 550 550" id="Layer_1" version="1.1" viewBox="0 0 550 550" xml:space="preserve" xmlns="http://www.w3.org/2000/svg" xmlns:xlink="http://www.w3.org/1999/xlink">
    <g>
        <g>
            <circle cx="275" cy="275" fill="#BF5B94" r="256"/>
            <path clip-rule="evenodd" d="M382.3,252.9c-1.4-7-3.6-14-6.4-20.6     c-2.7-6.5-6.1-12.8-10.1-18.6c-3.9-5.8-8.4-11.3-13.4-16.2c-5-5-10.4-9.5-16.2-13.4c-5.8-3.9-12.1-7.3-18.6-10.1     c-6.6-2.8-13.5-4.9-20.6-6.4c-7.2-1.5-14.6-2.2-22-2.2c-7.4,0-14.8,0.7-22.1,2.2c-7,1.4-14,3.6-20.6,6.4     c-6.5,2.8-12.8,6.2-18.6,10.1c-5.8,3.9-11.2,8.4-16.2,13.4c-4.9,5-9.4,10.4-13.4,16.2c-4,5.8-7.3,12.1-10.1,18.6     c-2.8,6.6-5,13.5-6.4,20.6c-1.5,7.2-2.2,14.6-2.2,22c0,7.4,0.7,14.8,2.2,22.1c1.4,7,3.6,14,6.4,20.6c2.7,6.5,6.1,12.7,10.1,18.6     c3.9,5.8,8.4,11.2,13.4,16.2c5,5,10.4,9.5,16.2,13.4c5.8,4,12.1,7.4,18.6,10.1c6.6,2.8,13.5,4.9,20.6,6.4     c7.2,1.5,14.6,2.2,22.1,2.2c7.4,0,14.8-0.7,22-2.2c7-1.4,14-3.6,20.6-6.4c6.5-2.7,12.8-6.1,18.6-10.1c5.8-3.9,11.2-8.4,16.2-13.4     c4.9-4.9,9.4-10.4,13.4-16.2c3.9-5.9,7.3-12.1,10.1-18.6c2.8-6.6,5-13.5,6.4-20.6c1.5-7.2,2.2-14.6,2.2-22.1     C384.5,267.6,383.8,260.2,382.3,252.9z M368.5,274.1c-1-0.2-32.8-7.1-65.1-3.1c-0.7-1.6-1.3-3.2-2-4.8c-2-4.6-4-9.1-6.2-13.6     c36.9-15.1,51.9-36.7,52.1-37C360.3,231.5,368.3,251.9,368.5,274.1z M336.8,204.8c-0.3,0.4-13.6,20.6-48.9,33.9     c-16-29.4-33.5-52.7-35-54.6c7.1-1.7,14.5-2.6,22-2.6C298.7,181.5,320.3,190.3,336.8,204.8z M252.6,184.2L252.6,184.2     c0,0-0.1,0-0.3,0.1C252.4,184.2,252.5,184.2,252.6,184.2z M235.1,190.4c1.3,1.7,18.6,25.1,34.7,53.9     c-44.9,11.9-83.9,11.5-86.3,11.4C189.5,226.8,209,202.7,235.1,190.4z M181.5,275c0-1,0-2,0.1-3c1.6,0,47.9,1.1,96-13.3     c2.7,5.3,5.2,10.6,7.6,15.9c-1.2,0.3-2.5,0.7-3.7,1.1c-50.5,16.3-76.1,61.7-76.1,61.7s0,0,0,0.1C190.6,321,181.5,299,181.5,275z      M275,368.5c-22.6,0-43.4-8.1-59.6-21.4c1.2,1,2.1,1.6,2.1,1.6s17.9-39.1,73.4-58.4c0.2-0.1,0.4-0.1,0.6-0.2     c13.2,34.2,18.6,62.8,20,71C300.3,365.9,288,368.5,275,368.5z M327.3,352.6c-0.9-5.6-5.9-33.1-18.2-66.8     c30.2-4.8,56.4,3.5,58.3,4.1C363.2,315.9,348.3,338.4,327.3,352.6z" fill="#FFFFFF" fill-rule="evenodd"/>
        </g>
    </g>
</svg>